# xmcd CD database file generated by Grip 3.3.1
# 
# Track frame offsets:
#       150
#       12041
#       26523
#       37944
#       50823
#       64247
#       78278
#       90945
#       107351
#       120023
#       134773
#       148630
#       161640
#       176246
#       189861
# 
# Disc length: 2730 seconds
# 
# Revision: 2
# Processed by: cddbd v1.5.2PL0 Copyright (c) Steve Scherf et al.
# Submitted via: Grip 3.3.1
# 
DISCID=b70aa80f
DTITLE=Various Artist - Simply Blues: Birth of the Blues
DYEAR=2005
DGENRE=Blues
TTITLE0=Robert Johnson - Hellhound On My Trail
TTITLE1=Charley Patton - Spoonful Blues
TTITLE2=Blind Willie McTell - Statesboro' Blues
TTITLE3=Skip James - I'm So Glad
TTITLE4=Blind Lemon Jefferson - Rabbit Foot Blues
TTITLE5=Furry Lewis - Kassie (Casey) Jones
TTITLE6=Bukka White - Fixin' To Die Blues
TTITLE7=Tommy Johnson - Canned Heat Blues
TTITLE8=Mississippi John Hurt - Candy Man
TTITLE9=Lonnie Johnson - Guitar Blues
TTITLE10=Sleepy John Estes - Milk Cow Blues
TTITLE11=Big Bill Broonzy - Midnight Special
TTITLE12=Leadbelly - The Bourgeois Blues
TTITLE13=Josh White - Homeless And Hungry Blues
TTITLE14=Blind Willie Johnson - Dark Was The Night
EXTD=
EXTT0=
EXTT1=
EXTT2=
EXTT3=
EXTT4=
EXTT5=
EXTT6=
EXTT7=
EXTT8=
EXTT9=
EXTT10=
EXTT11=
EXTT12=
EXTT13=
EXTT14=
PLAYORDER=
